<svg width="187" height="24" viewBox="0 0 187 24" fill="none" xmlns="http://www.w3.org/2000/svg">
<path d="M14.384 8.4H14.336L11.984 14.4H7.664L5.312 8.4H5.264V18H0.752V0.48H5.744L9.8 10.8H9.848L13.904 0.48H18.992V18H14.384V8.4ZM30.118 13.92H30.166L32.422 5.52H37.222L30.742 23.28H25.942L28.102 18L23.302 5.52H28.342L30.118 13.92ZM52.3254 7.68V11.28H46.3254V18H41.5254V0.48H52.8054V4.32H46.3254V7.68H52.3254ZM67.3108 5.28V8.88C65.5188 8.88 64.1668 9.216 63.2548 9.888C62.3428 10.56 61.8867 11.504 61.8867 12.72V18H57.2308V5.52H61.5268L61.5508 7.92H61.5988C62.9748 6.16 64.8788 5.28 67.3108 5.28ZM75.0188 10.56H79.0748C79.0748 9.04 78.3948 8.28 77.0348 8.28C75.8028 8.28 75.1308 9.04 75.0188 10.56ZM75.0668 13.2C75.3388 14.48 76.2508 15.12 77.8028 15.12C79.0028 15.12 80.1468 14.84 81.2348 14.28L82.1948 17.28C80.7228 17.92 79.1228 18.24 77.3948 18.24C75.3308 18.24 73.6748 17.656 72.4268 16.488C71.1788 15.32 70.5548 13.744 70.5548 11.76C70.5548 9.76 71.1228 8.184 72.2588 7.032C73.4108 5.864 74.9628 5.28 76.9148 5.28C78.9148 5.28 80.4748 5.848 81.5948 6.984C82.7148 8.104 83.2748 9.696 83.2748 11.76C83.2748 12.192 83.2348 12.672 83.1548 13.2H75.0668ZM91.4329 10.56H95.4889C95.4889 9.04 94.8089 8.28 93.4489 8.28C92.2169 8.28 91.5449 9.04 91.4329 10.56ZM91.4809 13.2C91.7529 14.48 92.6649 15.12 94.2169 15.12C95.4169 15.12 96.5609 14.84 97.6489 14.28L98.6089 17.28C97.1369 17.92 95.5369 18.24 93.8089 18.24C91.7449 18.24 90.0889 17.656 88.8409 16.488C87.5929 15.32 86.9689 13.744 86.9689 11.76C86.9689 9.76 87.5369 8.184 88.6729 7.032C89.8249 5.864 91.3769 5.28 93.3289 5.28C95.3289 5.28 96.8889 5.848 98.0089 6.984C99.1289 8.104 99.6889 9.696 99.6889 11.76C99.6889 12.192 99.6489 12.672 99.5689 13.2H91.4809ZM103.503 11.76C103.503 9.696 103.943 8.104 104.823 6.984C105.719 5.848 106.919 5.28 108.423 5.28C109.783 5.28 110.927 5.84 111.855 6.96H111.903V-1.43051e-06H116.463V18H112.263L112.167 16.32H112.119C111.111 17.6 109.879 18.24 108.423 18.24C106.983 18.24 105.799 17.664 104.871 16.512C103.959 15.36 103.503 13.776 103.503 11.76ZM107.823 11.76C107.823 12.72 108.015 13.464 108.399 13.992C108.783 14.504 109.271 14.76 109.863 14.76C110.487 14.76 110.983 14.512 111.351 14.016C111.719 13.52 111.903 12.808 111.903 11.88V11.64C111.903 10.728 111.719 10.024 111.351 9.528C110.983 9.016 110.487 8.76 109.863 8.76C109.223 8.76 108.719 9.016 108.351 9.528C107.999 10.024 107.823 10.768 107.823 11.76ZM122.486 7.008C123.638 5.856 125.262 5.28 127.358 5.28C129.454 5.28 131.078 5.856 132.23 7.008C133.382 8.16 133.958 9.744 133.958 11.76C133.958 13.776 133.382 15.36 132.23 16.512C131.078 17.664 129.454 18.24 127.358 18.24C125.262 18.24 123.638 17.664 122.486 16.512C121.334 15.36 120.758 13.776 120.758 11.76C120.758 9.744 121.334 8.16 122.486 7.008ZM125.75 14.232C126.102 14.728 126.638 14.976 127.358 14.976C128.078 14.976 128.614 14.728 128.966 14.232C129.318 13.736 129.494 12.912 129.494 11.76C129.494 10.608 129.318 9.784 128.966 9.288C128.614 8.792 128.078 8.544 127.358 8.544C126.638 8.544 126.102 8.792 125.75 9.288C125.398 9.784 125.222 10.608 125.222 11.76C125.222 12.912 125.398 13.736 125.75 14.232ZM152.265 18V11.04C152.265 10.08 152.177 9.448 152.001 9.144C151.825 8.84 151.505 8.688 151.041 8.688C150.625 8.688 150.281 8.896 150.009 9.312C149.737 9.712 149.601 10.288 149.601 11.04V18H145.233V11.04C145.233 10.08 145.145 9.448 144.969 9.144C144.809 8.84 144.497 8.688 144.033 8.688C143.617 8.688 143.273 8.896 143.001 9.312C142.729 9.712 142.593 10.288 142.593 11.04V18H138.153V5.52H142.233L142.329 7.2H142.377C142.825 6.608 143.345 6.144 143.937 5.808C144.529 5.456 145.121 5.28 145.713 5.28C146.481 5.28 147.089 5.416 147.537 5.688C148.001 5.944 148.425 6.408 148.809 7.08H148.857C149.545 6.408 150.177 5.944 150.753 5.688C151.329 5.416 151.985 5.28 152.721 5.28C154.097 5.28 155.089 5.656 155.697 6.408C156.321 7.16 156.633 8.464 156.633 10.32V18H152.265ZM162.008 18V0.48H167.288V18H162.008ZM186.825 0.48V4.44H182.073V18H177.177V4.44H172.425V0.48H186.825Z" fill="#0F044C"/>
</svg>
